<svg width="400.000000" height="400.000000" viewBox="0 0 400 400" fill="none" xmlns="http://www.w3.org/2000/svg" xmlns:xlink="http://www.w3.org/1999/xlink">
	<desc>
			Created with Pixso.
	</desc>
	<defs>
		<clipPath id="clip2_2">
			<rect id="Pine" width="400.000000" height="399.999969" fill="white"/>
		</clipPath>
	</defs>
	<g clip-path="url(#clip2_2)">
		<path id="path" d="M171.992 292.617L103.086 292.617C83.4766 292.617 75.5078 269.297 91.5625 258.906L176.328 204.18L121.172 204.18C102.305 204.18 93.8672 182.305 108.477 171.289L168.281 126.172L161.367 126.172C144.023 126.172 134.844 107.226 146.406 95.2733L201.719 38.164C209.688 29.9218 223.672 29.9218 231.641 38.164L286.953 95.2733C298.516 107.226 289.336 126.172 271.992 126.172L265.078 126.172L324.883 171.289C339.492 182.305 331.055 204.18 312.188 204.18L257.031 204.18L341.797 258.906C357.891 269.297 349.922 292.617 330.273 292.617L171.992 292.617Z" fill-rule="nonzero" fill="#3B995B"/>
		<path id="path" d="M197.445 287.229C195.614 297.398 197.028 287.244 197.445 290.51C198.342 297.521 197.445 290.51 197.445 293.574C197.445 281.324 197.445 218.745 197.445 287.229L197.445 321.289L197.445 280.444C197.445 276.807 227.243 293.651 227.243 293.651L281.063 280.444C288.522 280.444 310.287 275.735 311.434 271.716C312.85 266.969 310.516 262.414 306.003 259.466L261.057 233.895L223.456 205.874C221.008 204.305 219.899 201.28 220.74 198.486C221.544 195.691 224.145 193.777 227.052 193.777L281.063 193.777C288.254 193.777 292.347 189.299 293.609 185.432C295.101 180.954 270.085 165.986 266.03 162.924L249.276 148.147L230.954 129.122C228.697 127.4 227.779 124.452 228.697 121.772C229.576 119.093 232.101 117.294 234.932 117.294L241.702 117.294C248.396 117.294 252.412 113.389 253.981 109.752C254.784 107.838 246.254 93.8278 241.702 89.1193L197.445 42.226C192.473 37.0582 182.566 37.0582 177.593 42.226L133.374 89.1193C128.822 93.8278 120.292 107.838 121.096 109.752C122.626 113.389 126.68 117.294 133.374 117.294L140.145 117.294C142.975 117.294 145.462 119.093 146.38 121.772C147.26 124.452 146.342 127.4 144.123 129.122L108.97 162.847C104.915 165.909 79.9373 180.954 81.429 185.432C82.7296 189.299 86.7842 193.777 93.9755 193.777L147.986 193.777C150.893 193.777 153.456 195.691 154.298 198.486C155.139 201.28 153.992 204.305 151.582 205.874L76.2651 259.466C71.7515 262.376 62.1886 267.008 63.6039 271.754C64.2324 273.885 70.4836 278.73 81.4291 280.444C91.1354 281.964 105.464 280.482 108.97 280.482L143.74 280.482C147.374 280.482 197.445 276.807 197.445 280.444C197.445 282.301 210.711 290.763 197.445 293.651C184.739 296.416 145.518 293.651 143.74 293.651L76.2651 293.651C64.3307 293.651 54.1941 286.377 50.981 275.506C47.9591 265.17 52.052 254.566 61.4236 248.518L125.724 206.946L94.0137 206.946C82.3471 206.946 72.5165 200.132 68.9974 189.643C65.6695 179.69 68.9591 169.431 77.6039 162.924L123.085 128.586C116.773 126.06 111.648 121.236 108.97 114.958C105.221 106.077 107.134 96.2012 113.943 89.1193L168.145 33.0771C173.117 27.9475 180.156 24.9999 187.5 24.9999C194.883 24.9999 201.921 27.9475 206.893 33.0771L261.057 89.0427C267.904 96.0863 269.817 106.001 266.03 114.882C263.352 121.198 258.227 125.983 251.915 128.51L297.396 162.847C306.041 169.393 309.369 179.614 306.003 189.567C302.484 200.094 292.653 206.869 280.986 206.869L249.276 206.869L313.576 248.442C322.948 254.49 327.041 265.094 324.019 275.429C320.806 286.263 310.669 293.574 298.735 293.574L240 280L197.445 287.229L197.445 290.51C197.445 293.225 198.515 293.914 197.445 287.229C197.083 284.961 199.471 296.52 197.445 287.229Z" fill-rule="nonzero" fill="#333333"/>
		<rect id="矩形 1" x="200.000000" y="249.999969" width="25.000000" height="125.000000" fill="#333333"/>
	</g>
</svg>
